<svg width="64" height="64" viewBox="0 0 24 24" fill="none" xmlns="http://www.w3.org/2000/svg">
  <defs>
    <linearGradient id="goldGradient" x1="0%" y1="0%" x2="100%" y2="100%">
      <stop offset="0%" style="stop-color:#FFE28A;stop-opacity:1" />
      <stop offset="50%" style="stop-color:#F2CE60;stop-opacity:1" />
      <stop offset="100%" style="stop-color:#C29B2E;stop-opacity:1" />
    </linearGradient>
  </defs>
  <path d="M8 21h8M12 17v4" stroke="url(#goldGradient)" stroke-width="2" stroke-linecap="round" stroke-linejoin="round"/>
  <path d="M17 3H7L5 8C5 11.87 8.13 15 12 15C15.87 15 19 11.87 19 8L17 3Z" fill="url(#goldGradient)"/>
  <path d="M5 8H3C2.45 8 2 8.45 2 9V10C2 12.21 3.79 14 6 14M19 8H21C21.55 8 22 8.45 22 9V10C22 12.21 20.21 14 18 14" stroke="url(#goldGradient)" stroke-width="2" stroke-linecap="round" stroke-linejoin="round"/>
  <path d="M12 6V12" stroke="white" stroke-opacity="0.4" stroke-width="1" stroke-linecap="round"/>
</svg>